# xmcd CD database file
#
# Track frame offsets:
#	182
#	12682
#	26700
#	36760
#	47555
#	60537
#	71602
#	84417
#	96267
#	108757
#	121467
#
# Disc length: 1784 seconds
#
# Revision: 1
# Processed by: cddbd v1.4PL0 Copyright (c) Steve Scherf et al.
# Submitted via: CDex 1.51
#
DISCID=8d06f60b
DTITLE=Various Artist - 40's Hits... Country
DYEAR=1990
DGENRE=Country
TTITLE0=Tex Williams - Smoke! Smoke! Smoke!
TTITLE1=Tennessee Ernie Ford - Mule Train
TTITLE2=Margaret Whiting and Jimmy Wakely - Slippin' Around
TTITLE3=Merle Travis - Divorce Me C.O.D.
TTITLE4=Al Dexter - Pistol Packin' Mama
TTITLE5=Hank Thompson - Humpty Dumpty Heart
TTITLE6=Tex Ritter - I got Spurs (Jingle, Jangle, Jingle)
TTITLE7=Jimmie Davis - You Are My Sunshine
TTITLE8=Leon Payne - I Love You Because
TTITLE9=Jack Gurthrie - Oklahoma Hills
TTITLE10=Jimmy Wakely - One Has My Name (The Other Has My Heart)
EXTD=YEAR: 1990
EXTT0=
EXTT1=
EXTT2=
EXTT3=
EXTT4=
EXTT5=
EXTT6=
EXTT7=
EXTT8=
EXTT9=
EXTT10=
PLAYORDER=
